<svg width="18" height="19" viewBox="0 0 18 19" fill="none" xmlns="http://www.w3.org/2000/svg">
<path fill-rule="evenodd" clip-rule="evenodd" d="M13.142 6.047V7.19701C14.4338 7.60022 15.375 8.7696 15.375 10.1663V13.869C15.375 15.5981 13.9415 17 12.1742 17H5.8266C4.05852 17 2.625 15.5981 2.625 13.869V10.1663C2.625 8.7696 3.56696 7.60022 4.85796 7.19701V6.047C4.86559 3.81109 6.7175 2 8.98857 2C11.2901 2 13.142 3.81109 13.142 6.047ZM9.00381 3.30428C10.5509 3.30428 11.8084 4.53404 11.8084 6.047V7.03528H6.19165V6.0321C6.19927 4.52658 7.45674 3.30428 9.00381 3.30428ZM9.66684 12.8412C9.66684 13.2064 9.36962 13.4971 8.99619 13.4971C8.63038 13.4971 8.33316 13.2064 8.33316 12.8412V11.1866C8.33316 10.8289 8.63038 10.5382 8.99619 10.5382C9.36962 10.5382 9.66684 10.8289 9.66684 11.1866V12.8412Z" fill="#8C8C8C"/>
</svg>
