<svg width="16" height="15" viewBox="0 0 16 15" fill="none" xmlns="http://www.w3.org/2000/svg">
<path fill-rule="evenodd" clip-rule="evenodd" d="M11.7045 0.75C12.7103 0.75 13.6778 1.1475 14.3895 1.86075C15.102 2.5725 15.5003 3.5325 15.5003 4.5375V10.4625C15.5003 12.555 13.7978 14.25 11.7045 14.25H4.2953C2.20205 14.25 0.500298 12.555 0.500298 10.4625V4.5375C0.500298 2.445 2.19455 0.75 4.2953 0.75H11.7045ZM12.8978 5.655L12.9578 5.595C13.137 5.3775 13.137 5.0625 12.9495 4.845C12.8453 4.73325 12.702 4.665 12.5528 4.65C12.3953 4.64175 12.2453 4.695 12.132 4.8L8.7503 7.5C8.3153 7.86075 7.69205 7.86075 7.2503 7.5L3.8753 4.8C3.64205 4.6275 3.31955 4.65 3.1253 4.8525C2.9228 5.055 2.9003 5.3775 3.07205 5.6025L3.1703 5.7L6.5828 8.3625C7.0028 8.6925 7.51205 8.8725 8.0453 8.8725C8.57705 8.8725 9.0953 8.6925 9.51455 8.3625L12.8978 5.655Z" fill="#8C8C8C"/>
</svg>
